<?xml version="1.0" encoding="UTF-8"?>
<!DOCTYPE svg PUBLIC "-//W3C//DTD SVG 1.1//EN" "http://www.w3.org/Graphics/SVG/1.1/DTD/svg11.dtd">
<!-- Creator: CorelDRAW -->
<svg xmlns="http://www.w3.org/2000/svg" xml:space="preserve" width="2048px" height="2048px" style="shape-rendering:geometricPrecision; text-rendering:geometricPrecision; image-rendering:optimizeQuality; fill-rule:evenodd; clip-rule:evenodd"
viewBox="0 0 2048 2048"
 xmlns:xlink="http://www.w3.org/1999/xlink">
 <defs>
  <style type="text/css">
   <![CDATA[
    .fil2 {fill:none}
    .fil1 {fill:#00ACC1}
    .fil0 {fill:#4DD0E1}
    .fil3 {fill:#7E57C2;fill-rule:nonzero}
    .fil4 {fill:#9575CD;fill-rule:nonzero}
   ]]>
  </style>
   <clipPath id="id0">
    <path d="M1024 -0.0011811c565.539,0 1024,458.462 1024,1024 0,565.539 -458.462,1024 -1024,1024 -565.539,0 -1024,-458.462 -1024,-1024 0,-565.539 458.462,-1024 1024,-1024z"/>
   </clipPath>
 </defs>
 <g id="Layer_x0020_1">
  <metadata id="CorelCorpID_0Corel-Layer"/>
  <path class="fil0" d="M1024 -0.0011811c565.539,0 1024,458.462 1024,1024 0,565.539 -458.462,1024 -1024,1024 -565.539,0 -1024,-458.462 -1024,-1024 0,-565.539 458.462,-1024 1024,-1024z"/>
  <g style="clip-path:url(#id0)">
   <g id="_466507784">
    <g>
     <polygon id="_3968099441" class="fil1" points="1497.55,551.5 2633.43,1687.38 1987.68,1816.53 851.8,680.652 "/>
     <polygon id="_396817960" class="fil1" points="851.8,680.652 1987.68,1816.53 1987.68,2576.38 851.8,1440.5 "/>
     <polygon id="_396807232" class="fil1" points="1510.03,1474 2645.91,2609.88 2642.78,2612.07 2639.57,2614.21 2636.3,2616.29 2632.96,2618.31 2629.56,2620.28 2626.09,2622.19 2622.57,2624.04 2618.98,2625.83 2615.33,2627.56 2611.63,2629.23 2607.87,2630.83 2604.06,2632.37 2600.2,2633.84 2596.28,2635.25 2592.31,2636.6 2588.3,2637.87 2584.24,2639.07 2580.13,2640.21 2575.98,2641.27 2571.78,2642.26 2567.54,2643.18 2563.27,2644.02 2558.95,2644.79 2554.6,2645.48 2550.22,2646.09 2545.79,2646.63 2541.34,2647.08 2536.86,2647.46 2532.34,2647.75 2527.8,2647.96 2523.23,2648.09 2518.63,2648.13 1382.75,1512.25 1387.35,1512.21 1391.92,1512.08 1396.46,1511.87 1400.97,1511.58 1405.46,1511.2 1409.91,1510.75 1414.33,1510.21 1418.72,1509.6 1423.07,1508.91 1427.39,1508.14 1431.66,1507.3 1435.9,1506.38 1440.09,1505.39 1444.25,1504.33 1448.35,1503.19 1452.42,1501.99 1456.43,1500.71 1460.4,1499.37 1464.31,1497.96 1468.18,1496.49 1471.99,1494.95 1475.75,1493.34 1479.45,1491.68 1483.1,1489.95 1486.69,1488.16 1490.21,1486.31 1493.68,1484.4 1497.08,1482.43 1500.42,1480.4 1503.69,1478.32 1506.9,1476.19 "/>
     <polygon id="_396801136" class="fil1" points="1382.75,1512.25 2518.63,2648.13 2514.04,2648.09 2509.46,2647.96 2504.92,2647.75 2500.41,2647.46 2495.92,2647.08 2491.47,2646.63 2487.05,2646.09 2482.66,2645.48 2478.31,2644.79 2473.99,2644.02 2469.72,2643.18 2465.48,2642.26 2461.29,2641.27 2457.13,2640.21 2453.03,2639.07 2448.96,2637.87 2444.95,2636.6 2440.98,2635.25 2437.07,2633.84 2433.2,2632.37 2429.39,2630.83 2425.63,2629.23 2421.93,2627.56 2418.28,2625.83 2414.7,2624.04 2411.17,2622.19 2407.7,2620.28 2404.3,2618.31 2400.96,2616.29 2397.69,2614.21 2394.49,2612.07 2391.35,2609.88 1255.47,1474 1258.6,1476.19 1261.81,1478.32 1265.08,1480.4 1268.42,1482.43 1271.82,1484.4 1275.29,1486.31 1278.81,1488.16 1282.4,1489.95 1286.05,1491.68 1289.75,1493.34 1293.51,1494.95 1297.32,1496.49 1301.18,1497.96 1305.1,1499.37 1309.07,1500.71 1313.08,1501.99 1317.15,1503.19 1321.25,1504.33 1325.41,1505.39 1329.6,1506.38 1333.84,1507.3 1338.11,1508.14 1342.43,1508.91 1346.78,1509.6 1351.16,1510.21 1355.59,1510.75 1360.04,1511.2 1364.53,1511.58 1369.04,1511.87 1373.58,1512.08 1378.15,1512.21 "/>
     <polygon id="_396826912" class="fil1" points="1255.47,1474 2391.35,2609.88 2387.96,2607.4 2384.65,2604.85 2381.43,2602.24 2378.29,2599.57 2375.24,2596.84 2372.28,2594.05 1236.4,1458.17 1239.36,1460.96 1242.41,1463.69 1245.55,1466.36 1248.77,1468.97 1252.08,1471.52 "/>
     <polygon id="_396824536" class="fil1" points="1569.3,507.75 2705.18,1643.63 2705.18,2504.63 1569.3,1368.75 "/>
     <polygon id="_396814216" class="fil1" points="1569.3,1368.75 2705.18,2504.63 2705.12,2508.55 2704.92,2512.44 2704.59,2516.3 2704.14,2520.13 2703.55,2523.92 2702.85,2527.68 2702.02,2531.41 2701.07,2535.1 2700,2538.75 2698.81,2542.36 2697.5,2545.94 2696.08,2549.47 2694.55,2552.96 2692.9,2556.41 2691.14,2559.82 2689.28,2563.18 2687.3,2566.49 2685.23,2569.76 2683.04,2572.98 2680.76,2576.15 2678.37,2579.26 2675.88,2582.33 2673.3,2585.34 2670.62,2588.3 2667.85,2591.2 2664.98,2594.05 2662.02,2596.84 2658.97,2599.57 2655.84,2602.24 2652.61,2604.85 2649.3,2607.4 2645.91,2609.88 1510.03,1474 1513.42,1471.52 1516.73,1468.97 1519.95,1466.36 1523.09,1463.69 1526.14,1460.96 1529.1,1458.17 1531.97,1455.32 1534.74,1452.42 1537.42,1449.46 1540,1446.45 1542.49,1443.38 1544.88,1440.26 1547.16,1437.1 1549.34,1433.88 1551.42,1430.61 1553.4,1427.3 1555.26,1423.94 1557.02,1420.53 1558.67,1417.08 1560.2,1413.59 1561.62,1410.05 1562.93,1406.48 1564.12,1402.87 1565.19,1399.21 1566.14,1395.52 1566.97,1391.8 1567.67,1388.04 1568.25,1384.24 1568.71,1380.42 1569.04,1376.56 1569.23,1372.67 "/>
     <polygon id="_396824944" class="fil1" points="851.8,1440.5 1987.68,2576.38 1987.61,2580.3 1987.42,2584.19 1987.09,2588.05 1986.64,2591.88 1986.05,2595.67 1985.35,2599.43 1984.52,2603.16 1983.57,2606.85 1982.5,2610.5 1981.31,2614.11 1980,2617.69 1978.58,2621.22 1977.05,2624.71 1975.4,2628.16 1973.64,2631.57 1971.78,2634.93 1969.81,2638.24 1967.73,2641.51 1965.54,2644.73 1963.26,2647.9 1960.87,2651.02 1958.38,2654.08 1955.8,2657.09 1953.12,2660.05 1950.35,2662.96 1947.48,2665.8 1944.52,2668.59 1941.47,2671.32 1938.34,2673.99 1935.11,2676.6 1931.8,2679.15 1928.41,2681.63 792.532,1545.75 795.923,1543.27 799.231,1540.72 802.455,1538.11 805.592,1535.44 808.64,1532.71 811.599,1529.92 814.465,1527.07 817.24,1524.17 819.92,1521.21 822.503,1518.2 824.989,1515.13 827.376,1512.02 829.661,1508.85 831.844,1505.63 833.924,1502.36 835.896,1499.05 837.762,1495.69 839.52,1492.28 841.166,1488.83 842.702,1485.34 844.123,1481.81 845.429,1478.23 846.617,1474.62 847.688,1470.96 848.639,1467.28 849.468,1463.55 850.173,1459.79 850.755,1455.99 851.209,1452.17 851.536,1448.31 851.734,1444.42 "/>
     <polygon id="_396815680" class="fil1" points="792.532,1545.75 1928.41,2681.63 1925.28,2683.82 1922.07,2685.96 1918.8,2688.04 1915.46,2690.06 1912.06,2692.03 1908.59,2693.94 1905.07,2695.79 1901.48,2697.58 1897.83,2699.31 1894.13,2700.98 1890.37,2702.58 1886.56,2704.12 1882.7,2705.6 1878.78,2707 1874.81,2708.35 1870.8,2709.62 1866.74,2710.82 1862.63,2711.96 1858.48,2713.02 1854.28,2714.01 1850.04,2714.93 1845.77,2715.77 1841.45,2716.54 1837.1,2717.23 1832.72,2717.84 1828.29,2718.38 1823.84,2718.83 1819.36,2719.21 1814.84,2719.5 1810.3,2719.71 1805.73,2719.84 1801.13,2719.88 665.251,1584 669.846,1583.96 674.417,1583.83 678.96,1583.62 683.475,1583.33 687.96,1582.95 692.414,1582.5 696.836,1581.96 701.222,1581.35 705.573,1580.66 709.888,1579.89 714.164,1579.05 718.4,1578.13 722.594,1577.14 726.747,1576.08 730.855,1574.94 734.917,1573.74 738.931,1572.46 742.899,1571.12 746.815,1569.71 750.68,1568.24 754.492,1566.7 758.251,1565.09 761.953,1563.43 765.598,1561.7 769.185,1559.91 772.712,1558.06 776.177,1556.15 779.58,1554.18 782.918,1552.16 786.191,1550.08 789.395,1547.94 "/>
     <polygon id="_396804448" class="fil1" points="665.251,1584 1801.13,2719.88 1796.54,2719.84 1791.97,2719.71 1787.42,2719.5 1782.91,2719.21 1778.42,2718.83 1773.97,2718.38 1769.55,2717.84 1765.16,2717.23 1760.81,2716.54 1756.49,2715.77 1752.22,2714.93 1747.98,2714.01 1743.79,2713.02 1739.64,2711.96 1735.53,2710.82 1731.47,2709.62 1727.45,2708.35 1723.48,2707 1719.57,2705.6 1715.7,2704.12 1711.89,2702.58 1708.13,2700.98 1704.43,2699.31 1700.78,2697.58 1697.2,2695.79 1693.67,2693.94 1690.2,2692.03 1686.8,2690.06 1683.46,2688.04 1680.19,2685.96 1676.99,2683.82 1673.85,2681.63 537.969,1545.75 541.105,1547.94 544.31,1550.08 547.583,1552.16 550.921,1554.18 554.324,1556.15 557.788,1558.06 561.315,1559.91 564.902,1561.7 568.548,1563.43 572.249,1565.09 576.008,1566.7 579.82,1568.24 583.686,1569.71 587.602,1571.12 591.569,1572.46 595.584,1573.74 599.646,1574.94 603.754,1576.08 607.906,1577.14 612.101,1578.13 616.336,1579.05 620.613,1579.89 624.928,1580.66 629.279,1581.35 633.665,1581.96 638.087,1582.5 642.541,1582.95 647.026,1583.33 651.541,1583.62 656.084,1583.83 660.655,1583.96 "/>
     <polygon id="_396808240" class="fil1" points="537.969,1545.75 1673.85,2681.63 1670.46,2679.15 1667.15,2676.6 1663.93,2673.99 528.045,1538.11 531.269,1540.72 534.577,1543.27 "/>
     <polygon id="_396797320" class="fil1" points="1569.3,464 2705.18,1599.88 2705.18,1643.63 1569.3,507.75 "/>
    </g>
    <path id="_466499096" class="fil1" d="M1569.3 507.75l0 861.001c0,41.9445 -22.6524,79.0938 -59.2689,105.249 -33.0839,23.6315 -78.1288,38.25 -127.282,38.25 -49.1528,0 -94.1965,-14.6185 -127.282,-38.25 -36.6154,-26.1555 -59.2678,-63.3048 -59.2678,-105.249 0,-41.9433 22.6488,-79.0949 59.2678,-105.252 33.0851,-23.6303 78.1276,-38.25 127.282,-38.25 43.2237,0 83.269,11.3043 114.799,30.1004l0 -703.85 -645.748 129.152 0 759.85c0,41.9445 -22.6524,79.0938 -59.2678,105.249 -33.0851,23.6315 -78.1288,38.2488 -127.282,38.2488 -49.1528,0 -94.1977,-14.6173 -127.282,-38.2488 -36.6166,-26.1555 -59.2689,-63.3048 -59.2689,-105.249 0,-41.9445 22.65,-79.0961 59.2689,-105.252 33.0839,-23.6315 78.1276,-38.25 127.282,-38.25 43.2237,0 83.2678,11.3043 114.799,30.1004l0 -675.85 0 -29.4 28.8673 -5.77323 717.5 -143.502 42.8835 -8.57599 0 43.7504z"/>
   </g>
  </g>
  <path class="fil2" d="M1024 -0.0011811c565.539,0 1024,458.462 1024,1024 0,565.539 -458.462,1024 -1024,1024 -565.539,0 -1024,-458.462 -1024,-1024 0,-565.539 458.462,-1024 1024,-1024z"/>
  <polygon class="fil3" points="1497.55,1368.75 1497.55,551.501 851.8,680.652 851.8,1440.5 780.048,1440.5 780.048,651.251 780.048,621.851 808.916,616.076 1526.42,472.576 1569.3,464 1569.3,507.75 1569.3,1368.75 "/>
  <path class="fil4" d="M665.251 1297c49.154,0 94.1965,14.6185 127.282,38.25 36.6189,26.1555 59.2678,63.3083 59.2678,105.252 0,41.9433 -22.6512,79.0938 -59.2678,105.249 -33.0851,23.6315 -78.1288,38.25 -127.282,38.25 -49.1528,0 -94.1977,-14.6185 -127.282,-38.25 -36.6166,-26.1555 -59.2678,-63.306 -59.2678,-105.249 0,-41.9433 22.6488,-79.0961 59.2678,-105.252 33.0839,-23.6315 78.1276,-38.25 127.282,-38.25z"/>
  <path class="fil4" d="M1382.75 1225.25c49.154,0 94.1977,14.6185 127.282,38.25 36.6189,26.1555 59.2678,63.3083 59.2678,105.252 0,41.9445 -22.6512,79.0938 -59.2678,105.249 -33.0839,23.6315 -78.1288,38.25 -127.282,38.25 -49.1528,0 -94.1965,-14.6185 -127.282,-38.25 -36.6166,-26.1555 -59.2678,-63.3048 -59.2678,-105.249 0,-41.9433 22.6488,-79.0961 59.2678,-105.252 33.0851,-23.6315 78.1276,-38.25 127.282,-38.25z"/>
 </g>
</svg>
